<?xml version="1.0" standalone="no"?>
<!DOCTYPE svg PUBLIC "-//W3C//DTD SVG 20010904//EN"
 "http://www.w3.org/TR/2001/REC-SVG-20010904/DTD/svg10.dtd">
<svg version="1.0" xmlns="http://www.w3.org/2000/svg"
 width="2688.000000pt" height="2688.000000pt" viewBox="0 0 2688.000000 2688.000000"
 preserveAspectRatio="xMidYMid meet">
<metadata>
Created by potrace 1.14, written by Peter Selinger 2001-2017
</metadata>
<g transform="translate(0.000000,2688.000000) scale(0.100000,-0.100000)"
fill="#000000" stroke="none">
<path d="M10825 23673 c-203 -24 -401 -79 -800 -223 -168 -60 -311 -110 -316
-110 -16 0 -271 -103 -429 -173 -80 -36 -291 -134 -470 -219 -511 -244 -669
-311 -956 -408 -107 -36 -204 -75 -260 -107 -122 -69 -296 -155 -509 -253
-606 -277 -863 -444 -1073 -695 -196 -234 -326 -493 -368 -735 -25 -146 -15
-467 19 -611 67 -284 206 -530 416 -740 205 -204 346 -276 780 -403 106 -32
342 -114 524 -185 183 -71 375 -142 427 -159 217 -71 393 -102 570 -102 205 1
327 36 464 134 67 48 208 190 270 273 22 29 41 51 43 49 2 -1 -9 -29 -23 -62
-58 -131 -84 -306 -64 -429 25 -157 157 -492 270 -683 162 -274 341 -451 574
-569 163 -82 400 -120 694 -110 203 7 279 17 377 54 457 168 815 633 895 1162
15 106 13 330 -5 434 -35 199 -98 336 -245 532 -83 111 -251 274 -345 337
-132 87 -268 144 -400 168 -98 18 -592 25 -730 10 -245 -25 -423 -94 -549
-213 -36 -34 -65 -60 -63 -57 1 3 15 30 31 60 16 30 69 150 118 265 125 294
151 337 246 408 142 106 404 221 602 263 115 24 330 25 419 0 85 -23 166 -65
222 -115 96 -84 313 -395 621 -886 106 -170 226 -356 266 -413 224 -314 418
-515 635 -656 232 -152 446 -206 812 -206 254 0 402 31 576 122 369 192 652
579 765 1046 50 205 20 347 -165 780 -306 714 -803 1450 -1570 2321 -151 172
-288 339 -331 404 -57 86 -389 319 -617 435 -280 142 -511 216 -798 257 -91
13 -463 19 -550 8z"/>
<path d="M19980 18296 c-8 -3 -48 -10 -89 -16 -101 -17 -197 -51 -296 -105
-46 -25 -105 -49 -132 -54 -30 -6 -149 -6 -299 -1 -647 22 -1124 -31 -2289
-255 -889 -171 -1225 -221 -1700 -255 -82 -6 -183 -18 -224 -25 -575 -110
-1070 -630 -1177 -1235 -21 -123 -22 -347 0 -455 79 -397 351 -753 733 -962
203 -110 510 -173 847 -173 176 0 637 39 1136 95 173 20 394 19 527 -1 121
-17 153 -28 153 -48 0 -37 107 -333 159 -441 78 -159 162 -276 296 -410 202
-203 443 -336 687 -379 117 -21 339 -29 440 -16 381 47 730 279 979 649 124
184 187 330 230 531 20 90 23 136 23 327 l1 223 50 10 c102 20 248 41 540 75
816 96 1065 189 1381 517 163 169 290 381 370 613 34 100 38 122 42 242 24
690 -540 1366 -1269 1519 -66 14 -135 18 -329 19 -135 1 -364 4 -510 8 -146 3
-272 5 -280 3z"/>
<path d="M9831 14939 c-194 -22 -440 -111 -623 -225 -220 -137 -404 -348 -504
-574 -88 -200 -119 -375 -111 -619 6 -175 23 -273 73 -426 119 -360 443 -717
779 -858 33 -14 170 -50 305 -81 706 -163 1543 -395 2440 -677 157 -50 868
-284 1580 -520 3190 -1060 3097 -1030 4245 -1384 1981 -612 2819 -895 3835
-1295 179 -71 402 -157 495 -193 94 -36 330 -129 525 -207 643 -257 977 -378
1327 -479 246 -71 390 -94 593 -94 413 -1 736 115 1023 367 387 341 558 883
432 1371 -85 326 -312 632 -625 840 -132 89 -292 162 -520 240 -755 258 -1834
664 -2860 1075 -433 174 -562 219 -1060 370 -824 250 -2271 711 -3500 1115
-157 51 -620 204 -1030 338 -2031 668 -2730 896 -3575 1165 -673 215 -1103
347 -1385 428 -129 36 -341 97 -470 134 -277 80 -540 141 -735 170 -161 24
-517 35 -654 19z"/>
<path d="M8040 12105 c-80 -16 -290 -78 -362 -106 -340 -134 -629 -427 -767
-779 -40 -104 -70 -246 -82 -397 -23 -302 9 -483 184 -1018 116 -354 121 -390
121 -810 1 -300 -8 -433 -50 -765 -42 -339 -61 -400 -234 -760 -181 -375 -206
-461 -203 -686 5 -438 150 -725 607 -1202 86 -90 202 -218 258 -284 198 -235
268 -300 433 -400 333 -203 645 -341 1350 -598 215 -78 458 -169 541 -201 191
-73 226 -82 349 -82 125 0 228 21 415 85 402 138 514 168 634 168 46 0 64 -7
157 -63 135 -81 216 -141 469 -347 329 -268 436 -339 585 -389 162 -54 242
-62 690 -72 226 -4 439 -11 475 -14 l65 -7 80 53 c100 65 246 210 312 309 212
317 309 737 257 1112 -39 286 -121 593 -231 872 -30 76 -52 140 -50 142 2 3
202 6 443 8 388 3 455 5 578 24 76 12 173 25 215 28 42 4 780 7 1641 8 l1565
1 120 22 c421 78 754 229 1053 479 118 98 203 210 287 379 114 230 154 388
162 642 6 190 -4 302 -43 482 -87 391 -261 672 -542 870 -153 109 -268 141
-512 141 -58 0 -179 9 -270 20 -307 35 -485 43 -879 37 -346 -5 -576 -19 -779
-47 -40 -5 -243 -10 -450 -10 -409 0 -588 -9 -812 -39 -82 -11 -234 -22 -350
-25 -113 -3 -290 -15 -395 -26 -108 -12 -317 -25 -485 -30 -196 -6 -352 -16
-465 -30 -128 -16 -258 -24 -530 -30 -282 -6 -392 -12 -505 -29 -80 -11 -194
-24 -255 -28 -60 -5 -675 -7 -1366 -5 l-1257 3 -5 387 c-6 465 -11 516 -91
896 -142 676 -424 1227 -856 1669 -167 173 -260 248 -370 301 -118 58 -307
119 -429 140 -113 19 -328 20 -421 1z"/>
</g>
</svg>
